<svg width="25" height="24" viewBox="0 0 25 24" fill="none" xmlns="http://www.w3.org/2000/svg">
<g clip-path="url(#clip0)">
<g clip-path="url(#clip1)">
<path d="M13.545 21.75C13.3921 21.7496 13.2429 21.7025 13.1175 21.615L5.61754 16.365C5.51819 16.2961 5.43698 16.2042 5.38083 16.0971C5.32467 15.99 5.29524 15.8709 5.29504 15.75V8.25001C5.29524 8.1291 5.32467 8.01002 5.38083 7.90294C5.43698 7.79585 5.51819 7.70393 5.61754 7.63501L13.1175 2.38501C13.2269 2.31103 13.3538 2.26721 13.4855 2.258C13.6172 2.24878 13.749 2.27448 13.8675 2.33251C13.994 2.39274 14.1011 2.48719 14.1767 2.60517C14.2522 2.72315 14.2932 2.85993 14.295 3.00001V21C14.2953 21.1377 14.2577 21.2729 14.1863 21.3906C14.1148 21.5084 14.0123 21.6042 13.89 21.6675C13.7833 21.7222 13.665 21.7505 13.545 21.75ZM6.79504 15.36L12.795 19.56V4.44001L6.79504 8.64001V15.36Z" fill="white"/>
<path d="M6.04504 16.5H3.04504C2.44831 16.5 1.87601 16.2629 1.45405 15.841C1.0321 15.419 0.795044 14.8467 0.795044 14.25V9.75C0.795044 9.15326 1.0321 8.58097 1.45405 8.15901C1.87601 7.73705 2.44831 7.5 3.04504 7.5H6.04504C6.24396 7.5 6.43472 7.57902 6.57537 7.71967C6.71603 7.86032 6.79504 8.05109 6.79504 8.25V15.75C6.79504 15.9489 6.71603 16.1397 6.57537 16.2803C6.43472 16.421 6.24396 16.5 6.04504 16.5ZM3.04504 9C2.84613 9 2.65537 9.07902 2.51471 9.21967C2.37406 9.36032 2.29504 9.55109 2.29504 9.75V14.25C2.29504 14.4489 2.37406 14.6397 2.51471 14.7803C2.65537 14.921 2.84613 15 3.04504 15H5.29504V9H3.04504Z" fill="white"/>
<path d="M19.905 19.11C19.8063 19.1106 19.7085 19.0917 19.6171 19.0543C19.5257 19.017 19.4426 18.962 19.3725 18.8925C19.3022 18.8228 19.2465 18.7398 19.2084 18.6484C19.1703 18.557 19.1507 18.459 19.1507 18.36C19.1507 18.261 19.1703 18.163 19.2084 18.0716C19.2465 17.9802 19.3022 17.8972 19.3725 17.8275C20.916 16.2808 21.7828 14.185 21.7828 12C21.7828 9.81497 20.916 7.71917 19.3725 6.1725C19.3026 6.10257 19.2471 6.01955 19.2093 5.92819C19.1715 5.83682 19.152 5.7389 19.152 5.64C19.152 5.54111 19.1715 5.44318 19.2093 5.35181C19.2471 5.26045 19.3026 5.17743 19.3725 5.1075C19.4425 5.03757 19.5255 4.9821 19.6169 4.94426C19.7082 4.90641 19.8062 4.88693 19.905 4.88693C20.0039 4.88693 20.1019 4.90641 20.1932 4.94426C20.2846 4.9821 20.3676 5.03757 20.4375 5.1075C22.2649 6.93583 23.2915 9.41502 23.2915 12C23.2915 14.585 22.2649 17.0642 20.4375 18.8925C20.3675 18.962 20.2844 19.017 20.193 19.0543C20.1016 19.0917 20.0037 19.1106 19.905 19.11Z" fill="white"/>
<path d="M17.7825 16.9875C17.5858 16.9867 17.3972 16.9086 17.2575 16.77C17.1339 16.6266 17.0691 16.4418 17.076 16.2526C17.083 16.0635 17.1612 15.8839 17.295 15.75C17.7826 15.2625 18.1694 14.6837 18.4332 14.0467C18.6971 13.4097 18.8329 12.727 18.8329 12.0375C18.8329 11.348 18.6971 10.6653 18.4332 10.0283C18.1694 9.39129 17.7826 8.81252 17.295 8.325C17.1722 8.18153 17.108 7.99697 17.1152 7.80821C17.1225 7.61945 17.2008 7.4404 17.3344 7.30683C17.4679 7.17326 17.647 7.09501 17.8357 7.08772C18.0245 7.08043 18.2091 7.14463 18.3525 7.2675C19.6166 8.53313 20.3266 10.2487 20.3266 12.0375C20.3266 13.8263 19.6166 15.5419 18.3525 16.8075C18.2749 16.875 18.1843 16.9258 18.0862 16.9567C17.9882 16.9877 17.8848 16.9982 17.7825 16.9875Z" fill="white"/>
</g>
</g>
<defs>
<clipPath id="clip0">
<rect width="24" height="24" fill="white" transform="translate(0.0450439)"/>
</clipPath>
<clipPath id="clip1">
<rect width="24" height="24" fill="white" transform="translate(0.0450439)"/>
</clipPath>
</defs>
</svg>
