<svg viewBox="0 0 98 38" fill="none" xmlns="http://www.w3.org/2000/svg">
<path opacity="0.9" d="M0 0V27L10 37V0H0Z" fill="#121D26"/>
<g opacity="0.9">
<rect width="78" height="37" transform="translate(10)" fill="#121D26"/>
<g filter="url(#filter0_d)">
<path d="M24.784 23V12.78H26.856L27.85 16.042C28.018 16.602 28.144 17.092 28.228 17.512C28.3027 17.092 28.424 16.5973 28.592 16.028L29.544 12.78H31.616V23H29.978V19.822C29.978 18.9633 30.0153 17.988 30.09 16.896C30.174 15.804 30.272 14.7633 30.384 13.774L29.012 18.604H27.416L26.002 13.774C26.1233 14.726 26.2213 15.748 26.296 16.84C26.38 17.9227 26.422 18.9167 26.422 19.822V23H24.784ZM38.5385 12.64C39.5279 12.64 40.3165 12.9153 40.9045 13.466C41.4925 14.0073 41.7865 14.74 41.7865 15.664V20.116C41.7865 21.04 41.4925 21.7773 40.9045 22.328C40.3165 22.8693 39.5279 23.14 38.5385 23.14C37.5585 23.14 36.7745 22.8693 36.1865 22.328C35.5985 21.7773 35.3045 21.04 35.3045 20.116H37.0545C37.0545 20.592 37.1852 20.9607 37.4465 21.222C37.7079 21.4833 38.0719 21.614 38.5385 21.614C39.0145 21.614 39.3785 21.4833 39.6305 21.222C39.8919 20.9607 40.0225 20.592 40.0225 20.116V18.646H37.0405V17.064H40.0225V15.65C40.0225 15.174 39.8919 14.81 39.6305 14.558C39.3785 14.2967 39.0145 14.166 38.5385 14.166C38.0625 14.166 37.6939 14.2967 37.4325 14.558C37.1805 14.8193 37.0545 15.188 37.0545 15.664H35.3045C35.3045 14.74 35.5985 14.0073 36.1865 13.466C36.7745 12.9153 37.5585 12.64 38.5385 12.64ZM45.8671 23V12.78H49.2691C49.9411 12.78 50.5337 12.9107 51.0471 13.172C51.5604 13.4333 51.9571 13.802 52.2371 14.278C52.5171 14.754 52.6571 15.3047 52.6571 15.93C52.6571 16.5553 52.5171 17.106 52.2371 17.582C51.9571 18.058 51.5604 18.4267 51.0471 18.688C50.5337 18.9493 49.9411 19.08 49.2691 19.08H47.6171V23H45.8671ZM49.2691 17.512C49.7544 17.512 50.1417 17.3673 50.4311 17.078C50.7297 16.7887 50.8791 16.406 50.8791 15.93C50.8791 15.4447 50.7344 15.062 50.4451 14.782C50.1557 14.4927 49.7637 14.348 49.2691 14.348H47.6171V17.512H49.2691ZM56.1916 23V12.78H57.7876V17.778C57.7876 18.6367 57.7316 19.724 57.6196 21.04L60.4336 12.78H62.5756V23H60.9796V18.156C60.9796 17.2973 61.0449 16.1587 61.1756 14.74L58.3336 23H56.1916ZM73.1381 24.932H66.4181V23.35H73.1381V24.932Z" fill="#E9F3FF"/>
</g>
</g>
<path opacity="0.9" d="M98 37L98 10L88 -8.74228e-07L88 37L98 37Z" fill="#121D26"/>
<path opacity="0.9" d="M11 36.5L1 26.5V1H11" stroke="#DCFFFF" stroke-width="2"/>
<path opacity="0.9" d="M87 1H11M11 36H87" stroke="#DCFFFF" stroke-width="2"/>
<path opacity="0.9" d="M87 0.999999L97 11L97 36L87 36" stroke="#DCFFFF" stroke-width="2"/>
<defs>
<filter id="filter0_d" x="22.784" y="10.64" width="52.3541" height="16.292" filterUnits="userSpaceOnUse" color-interpolation-filters="sRGB">
<feFlood flood-opacity="0" result="BackgroundImageFix"/>
</filter>
</defs>
</svg>
