<svg width="120" height="120" viewBox="0 0 120 120" fill="none" xmlns="http://www.w3.org/2000/svg">
<rect width="120" height="120" rx="40" fill="white"/>
<path d="M29.8544 66C29.7478 66 29.6518 65.9627 29.5664 65.888C29.4918 65.8027 29.4544 65.7067 29.4544 65.6V59.776H27.0224C26.9158 59.776 26.8198 59.7387 26.7344 59.664C26.6598 59.5787 26.6224 59.4827 26.6224 59.376V58.08C26.6224 57.9627 26.6598 57.8667 26.7344 57.792C26.8198 57.7173 26.9158 57.68 27.0224 57.68H34.5424C34.6598 57.68 34.7558 57.7173 34.8304 57.792C34.9051 57.8667 34.9424 57.9627 34.9424 58.08V59.376C34.9424 59.4827 34.9051 59.5787 34.8304 59.664C34.7558 59.7387 34.6598 59.776 34.5424 59.776H32.1104V65.6C32.1104 65.7067 32.0731 65.8027 31.9984 65.888C31.9238 65.9627 31.8278 66 31.7104 66H29.8544ZM44.0121 57.68C44.1081 57.68 44.1881 57.7173 44.2521 57.792C44.3267 57.856 44.3641 57.9307 44.3641 58.016C44.3641 58.0907 44.3481 58.16 44.3161 58.224L41.2761 65.552C40.9347 66.352 40.6094 66.9973 40.3001 67.488C40.0014 67.9787 39.6387 68.3627 39.2121 68.64C38.7961 68.9173 38.2894 69.056 37.6921 69.056H36.9081C36.7907 69.056 36.6947 69.0187 36.6201 68.944C36.5454 68.8693 36.5081 68.7733 36.5081 68.656V67.36C36.5081 67.2427 36.5454 67.1467 36.6201 67.072C36.6947 66.9973 36.7907 66.96 36.9081 66.96H37.4681C37.7454 66.96 37.9587 66.88 38.1081 66.72C38.2574 66.56 38.4281 66.256 38.6201 65.808L38.7001 65.6L35.5161 58.224C35.4841 58.1387 35.4681 58.0747 35.4681 58.032C35.4894 57.936 35.5321 57.856 35.5961 57.792C35.6707 57.7173 35.7561 57.68 35.8521 57.68H37.6441C37.8681 57.68 38.0227 57.792 38.1081 58.016L39.9161 62.64L41.8201 58.016C41.9054 57.792 42.0654 57.68 42.3001 57.68H44.0121ZM48.1044 66C47.9978 66 47.9018 65.9627 47.8164 65.888C47.7418 65.8027 47.7044 65.7067 47.7044 65.6V59.776H45.2724C45.1658 59.776 45.0698 59.7387 44.9844 59.664C44.9098 59.5787 44.8724 59.4827 44.8724 59.376V58.08C44.8724 57.9627 44.9098 57.8667 44.9844 57.792C45.0698 57.7173 45.1658 57.68 45.2724 57.68H52.7924C52.9098 57.68 53.0058 57.7173 53.0804 57.792C53.1551 57.8667 53.1924 57.9627 53.1924 58.08V59.376C53.1924 59.4827 53.1551 59.5787 53.0804 59.664C53.0058 59.7387 52.9098 59.776 52.7924 59.776H50.3604V65.6C50.3604 65.7067 50.3231 65.8027 50.2484 65.888C50.1738 65.9627 50.0778 66 49.9604 66H48.1044ZM57.6363 66C57.519 66 57.4176 65.9627 57.3323 65.888C57.2576 65.8027 57.2203 65.7013 57.2203 65.584V64.192C57.2203 64.0853 57.2523 64 57.3163 63.936C57.391 63.8613 57.487 63.8133 57.6043 63.792C57.9136 63.76 58.1483 63.6213 58.3083 63.376C58.4683 63.12 58.5803 62.752 58.6443 62.272C58.7083 61.792 58.7403 61.1467 58.7403 60.336V58.08C58.7403 57.9627 58.7776 57.8667 58.8523 57.792C58.9376 57.7173 59.0336 57.68 59.1403 57.68H65.4123C65.5296 57.68 65.6256 57.7173 65.7003 57.792C65.7856 57.8667 65.8283 57.9627 65.8283 58.08V65.6C65.8283 65.7173 65.7856 65.8133 65.7003 65.888C65.6256 65.9627 65.5296 66 65.4123 66H63.5243C63.4176 66 63.3216 65.9627 63.2363 65.888C63.1616 65.8027 63.1243 65.7067 63.1243 65.6V59.776H61.3003V60.624C61.3003 62.0213 61.1936 63.104 60.9803 63.872C60.767 64.6293 60.399 65.1733 59.8763 65.504C59.3643 65.8347 58.6176 66 57.6363 66ZM71.7003 66.16C70.3776 66.16 69.359 65.8453 68.6443 65.216C67.9296 64.5867 67.5403 63.7013 67.4763 62.56C67.4656 62.4213 67.4603 62.1813 67.4603 61.84C67.4603 61.4987 67.4656 61.2587 67.4763 61.12C67.5403 59.9893 67.9403 59.1093 68.6763 58.48C69.4123 57.84 70.4203 57.52 71.7003 57.52C72.991 57.52 74.0043 57.84 74.7403 58.48C75.4763 59.1093 75.8763 59.9893 75.9403 61.12C75.951 61.2587 75.9563 61.4987 75.9563 61.84C75.9563 62.1813 75.951 62.4213 75.9403 62.56C75.8763 63.7013 75.487 64.5867 74.7723 65.216C74.0576 65.8453 73.0336 66.16 71.7003 66.16ZM71.7003 64.208C72.1696 64.208 72.5163 64.0693 72.7403 63.792C72.9643 63.504 73.0923 63.0667 73.1243 62.48C73.135 62.3733 73.1403 62.16 73.1403 61.84C73.1403 61.52 73.135 61.3067 73.1243 61.2C73.0923 60.624 72.959 60.192 72.7243 59.904C72.5003 59.616 72.159 59.472 71.7003 59.472C70.815 59.472 70.3456 60.048 70.2923 61.2L70.2763 61.84L70.2923 62.48C70.3136 63.0667 70.4363 63.504 70.6603 63.792C70.895 64.0693 71.2416 64.208 71.7003 64.208ZM77.9456 66C77.8282 66 77.7322 65.9627 77.6576 65.888C77.5829 65.8133 77.5456 65.7173 77.5456 65.6V58.08C77.5456 57.9627 77.5829 57.8667 77.6576 57.792C77.7322 57.7173 77.8282 57.68 77.9456 57.68H83.2896C83.4069 57.68 83.5029 57.7173 83.5776 57.792C83.6522 57.8667 83.6896 57.9627 83.6896 58.08V59.376C83.6896 59.4827 83.6522 59.5787 83.5776 59.664C83.5029 59.7387 83.4069 59.776 83.2896 59.776H80.2336V65.6C80.2336 65.7067 80.1962 65.8027 80.1216 65.888C80.0469 65.9627 79.9509 66 79.8336 66H77.9456ZM88.7003 66.16C87.3776 66.16 86.359 65.8453 85.6443 65.216C84.9296 64.5867 84.5403 63.7013 84.4763 62.56C84.4656 62.4213 84.4603 62.1813 84.4603 61.84C84.4603 61.4987 84.4656 61.2587 84.4763 61.12C84.5403 59.9893 84.9403 59.1093 85.6763 58.48C86.4123 57.84 87.4203 57.52 88.7003 57.52C89.991 57.52 91.0043 57.84 91.7403 58.48C92.4763 59.1093 92.8763 59.9893 92.9403 61.12C92.951 61.2587 92.9563 61.4987 92.9563 61.84C92.9563 62.1813 92.951 62.4213 92.9403 62.56C92.8763 63.7013 92.487 64.5867 91.7723 65.216C91.0576 65.8453 90.0336 66.16 88.7003 66.16ZM88.7003 64.208C89.1696 64.208 89.5163 64.0693 89.7403 63.792C89.9643 63.504 90.0923 63.0667 90.1243 62.48C90.135 62.3733 90.1403 62.16 90.1403 61.84C90.1403 61.52 90.135 61.3067 90.1243 61.2C90.0923 60.624 89.959 60.192 89.7243 59.904C89.5003 59.616 89.159 59.472 88.7003 59.472C87.815 59.472 87.3456 60.048 87.2923 61.2L87.2763 61.84L87.2923 62.48C87.3136 63.0667 87.4363 63.504 87.6603 63.792C87.895 64.0693 88.2416 64.208 88.7003 64.208Z" fill="black"/>
</svg>
