<svg width="25" height="24" viewBox="0 0 25 24" fill="none" xmlns="http://www.w3.org/2000/svg">
<g clip-path="url(#clip0)">
<path d="M13.545 21.75C13.3921 21.7496 13.2429 21.7025 13.1175 21.615L5.61754 16.365C5.51819 16.2961 5.43698 16.2042 5.38083 16.0971C5.32467 15.99 5.29524 15.8709 5.29504 15.75V8.25001C5.29524 8.1291 5.32467 8.01002 5.38083 7.90294C5.43698 7.79585 5.51819 7.70393 5.61754 7.63501L13.1175 2.38501C13.2269 2.31103 13.3538 2.26721 13.4855 2.258C13.6172 2.24878 13.749 2.27448 13.8675 2.33251C13.994 2.39274 14.1011 2.48719 14.1767 2.60517C14.2522 2.72315 14.2932 2.85993 14.295 3.00001V21C14.2953 21.1377 14.2577 21.2729 14.1863 21.3906C14.1148 21.5084 14.0123 21.6042 13.89 21.6675C13.7833 21.7222 13.665 21.7505 13.545 21.75ZM6.79504 15.36L12.795 19.56V4.44001L6.79504 8.64001V15.36Z" fill="white"/>
<path d="M6.04504 16.5H3.04504C2.44831 16.5 1.87601 16.2629 1.45405 15.841C1.0321 15.419 0.795044 14.8467 0.795044 14.25V9.75C0.795044 9.15326 1.0321 8.58097 1.45405 8.15901C1.87601 7.73705 2.44831 7.5 3.04504 7.5H6.04504C6.24396 7.5 6.43472 7.57902 6.57537 7.71967C6.71603 7.86032 6.79504 8.05109 6.79504 8.25V15.75C6.79504 15.9489 6.71603 16.1397 6.57537 16.2803C6.43472 16.421 6.24396 16.5 6.04504 16.5ZM3.04504 9C2.84613 9 2.65537 9.07902 2.51471 9.21967C2.37406 9.36032 2.29504 9.55109 2.29504 9.75V14.25C2.29504 14.4489 2.37406 14.6397 2.51471 14.7803C2.65537 14.921 2.84613 15 3.04504 15H5.29504V9H3.04504Z" fill="white"/>
<path d="M16.7125 8.28669L15.6519 9.34735L22.0158 15.7113L23.0765 14.6507L16.7125 8.28669Z" fill="white"/>
<path d="M22.0158 8.28668L15.6519 14.6506L16.7125 15.7113L23.0765 9.34734L22.0158 8.28668Z" fill="white"/>
</g>
<defs>
<clipPath id="clip0">
<rect width="24" height="24" fill="white" transform="translate(0.0450439)"/>
</clipPath>
</defs>
</svg>
